Castoro-Italic.ufo
<glyph name="numbersign" format="2">
  <advance width="600"/>
  <unicode hex="0023"/>
  <outline>
    <contour>
      <point x="355" y="0" type="line"/>
      <point x="509" y="620" type="line"/>
      <point x="451" y="620" type="line"/>
      <point x="296" y="0" type="line"/>
    </contour>
    <contour>
      <point x="532" y="185" type="line"/>
      <point x="532" y="242" type="line"/>
      <point x="51" y="242" type="line"/>
      <point x="51" y="185" type="line"/>
    </contour>
    <contour>
      <point x="168" y="0" type="line"/>
      <point x="319" y="620" type="line"/>
      <point x="262" y="620" type="line"/>
      <point x="108" y="0" type="line"/>
    </contour>
    <contour>
      <point x="566" y="380" type="line"/>
      <point x="566" y="437" type="line"/>
      <point x="86" y="437" type="line"/>
      <point x="86" y="380" type="line"/>
    </contour>
  </outline>
  <guideline angle="79.01" x="494" y="0"/>
</glyph>
<glyph name="zero" format="2">
  <advance width="558"/>
  <unicode hex="0030"/>
  <outline>
    <contour>
      <point x="333" y="591" type="curve" smooth="yes"/>
      <point x="402" y="591"/>
      <point x="427" y="519"/>
      <point x="427" y="417" type="curve" smooth="yes"/>
      <point x="427" y="251"/>
      <point x="360" y="26"/>
      <point x="238" y="26" type="curve" smooth="yes"/>
      <point x="170" y="26"/>
      <point x="146" y="96"/>
      <point x="146" y="199" type="curve" smooth="yes"/>
      <point x="146" y="370"/>
      <point x="213" y="591"/>
    </contour>
    <contour>
      <point x="236" y="-12" type="curve" smooth="yes"/>
      <point x="399" y="-12"/>
      <point x="530" y="165"/>
      <point x="530" y="377" type="curve" smooth="yes"/>
      <point x="530" y="520"/>
      <point x="470" y="630"/>
      <point x="336" y="630" type="curve" smooth="yes"/>
      <point x="157" y="630"/>
      <point x="44" y="436"/>
      <point x="44" y="241" type="curve" smooth="yes"/>
      <point x="44" y="85"/>
      <point x="115" y="-12"/>
    </contour>
  </outline>
</glyph>
<glyph name="F" format="2">
  <advance width="587"/>
  <unicode hex="0046"/>
  <outline>
    <contour>
      <point x="-12" y="-1" type="curve"/>
      <point x="25" y="-1"/>
      <point x="97" y="1"/>
      <point x="142" y="1" type="curve" smooth="yes"/>
      <point x="188" y="1"/>
      <point x="244" y="-1"/>
      <point x="294" y="-1" type="curve"/>
      <point x="297" y="8"/>
      <point x="299" y="21"/>
      <point x="300" y="31" type="curve"/>
      <point x="220" y="40"/>
      <point x="201" y="38"/>
      <point x="201" y="67" type="curve" smooth="yes"/>
      <point x="201" y="80"/>
      <point x="206" y="96"/>
      <point x="210" y="119" type="curve" smooth="yes"/>
      <point x="319" y="679" type="line"/>
      <point x="271" y="658" type="line"/>
      <point x="459" y="658" type="line" smooth="yes"/>
      <point x="558" y="658"/>
      <point x="566" y="634"/>
      <point x="597" y="535" type="curve"/>
      <point x="607" y="533"/>
      <point x="616" y="533"/>
      <point x="627" y="535" type="curve"/>
      <point x="625" y="577"/>
      <point x="625" y="616"/>
      <point x="625" y="654" type="curve" smooth="yes"/>
      <point x="625" y="670"/>
      <point x="625" y="680"/>
      <point x="626" y="701" type="curve"/>
      <point x="589" y="699"/>
      <point x="532" y="699"/>
      <point x="450" y="699" type="curve" smooth="yes"/>
      <point x="254" y="699" type="line" smooth="yes"/>
      <point x="218" y="699"/>
      <point x="155" y="701"/>
      <point x="116" y="701" type="curve"/>
      <point x="113" y="690"/>
      <point x="111" y="679"/>
      <point x="110" y="669" type="curve"/>
      <point x="179" y="665"/>
      <point x="197" y="664"/>
      <point x="197" y="633" type="curve" smooth="yes"/>
      <point x="197" y="621"/>
      <point x="194" y="606"/>
      <point x="189" y="581" type="curve" smooth="yes"/>
      <point x="97" y="107" type="line" smooth="yes"/>
      <point x="84" y="41"/>
      <point x="82" y="39"/>
      <point x="-7" y="31" type="curve"/>
      <point x="-11" y="21"/>
      <point x="-12" y="8"/>
    </contour>
    <contour>
      <point x="419" y="219" type="curve"/>
      <point x="430" y="217"/>
      <point x="443" y="217"/>
      <point x="455" y="219" type="curve"/>
      <point x="460" y="261"/>
      <point x="469" y="311"/>
      <point x="477" y="350" type="curve" smooth="yes"/>
      <point x="485" y="391"/>
      <point x="498" y="440"/>
      <point x="507" y="476" type="curve"/>
      <point x="496" y="478"/>
      <point x="482" y="478"/>
      <point x="470" y="476" type="curve"/>
      <point x="436" y="378"/>
      <point x="427" y="374"/>
      <point x="332" y="374" type="curve" smooth="yes"/>
      <point x="239" y="374" type="line"/>
      <point x="232" y="331" type="line"/>
      <point x="323" y="331" type="line" smooth="yes"/>
      <point x="396" y="331"/>
      <point x="422" y="329"/>
      <point x="422" y="262" type="curve" smooth="yes"/>
      <point x="422" y="251"/>
      <point x="421" y="234"/>
    </contour>
  </outline>
  <guideline angle="79.01" x="523" y="0"/>
</glyph>
<glyph name="J" format="2">
  <advance width="330"/>
  <unicode hex="004A"/>
  <outline>
    <contour>
      <point x="-102" y="-242" type="curve" smooth="yes"/>
      <point x="-43" y="-242"/>
      <point x="25" y="-217"/>
      <point x="78" y="-164" type="curve" smooth="yes"/>
      <point x="126" y="-116"/>
      <point x="169" y="-38"/>
      <point x="189" y="65" type="curve" smooth="yes"/>
      <point x="292" y="593" type="line" smooth="yes"/>
      <point x="305" y="661"/>
      <point x="308" y="661"/>
      <point x="395" y="669" type="curve"/>
      <point x="399" y="679"/>
      <point x="401" y="691"/>
      <point x="401" y="701" type="curve"/>
      <point x="363" y="701"/>
      <point x="305" y="699"/>
      <point x="258" y="699" type="curve" smooth="yes"/>
      <point x="209" y="699"/>
      <point x="141" y="701"/>
      <point x="106" y="701" type="curve"/>
      <point x="103" y="690"/>
      <point x="101" y="679"/>
      <point x="100" y="669" type="curve"/>
      <point x="169" y="664"/>
      <point x="187" y="663"/>
      <point x="187" y="633" type="curve" smooth="yes"/>
      <point x="187" y="621"/>
      <point x="184" y="605"/>
      <point x="179" y="581" type="curve" smooth="yes"/>
      <point x="70" y="18" type="line" smooth="yes"/>
      <point x="46" y="-105"/>
      <point x="5" y="-197"/>
      <point x="-74" y="-196" type="curve"/>
      <point x="-33" y="-226" type="line"/>
      <point x="-45" y="-162"/>
      <point x="-89" y="-124"/>
      <point x="-126" y="-124" type="curve" smooth="yes"/>
      <point x="-171" y="-124"/>
      <point x="-191" y="-152"/>
      <point x="-191" y="-183" type="curve" smooth="yes"/>
      <point x="-191" y="-216"/>
      <point x="-157" y="-242"/>
    </contour>
  </outline>
</glyph>
<glyph name="K" format="2">
  <advance width="694"/>
  <unicode hex="004B"/>
  <outline>
    <contour>
      <point x="461" y="0" type="curve"/>
      <point x="480" y="0"/>
      <point x="497" y="1"/>
      <point x="512" y="1" type="curve" smooth="yes"/>
      <point x="548" y="1"/>
      <point x="619" y="0"/>
      <point x="657" y="0" type="curve"/>
      <point x="661" y="9"/>
      <point x="663" y="21"/>
      <point x="663" y="31" type="curve"/>
      <point x="574" y="37"/>
      <point x="570" y="45"/>
      <point x="521" y="130" type="curve" smooth="yes"/>
      <point x="467" y="223"/>
      <point x="422" y="305"/>
      <point x="357" y="412" type="curve"/>
      <point x="275" y="340" type="line"/>
      <point x="348" y="220"/>
      <point x="408" y="113"/>
    </contour>
    <contour>
      <point x="191" y="222" type="line"/>
      <point x="211" y="242"/>
      <point x="290" y="324"/>
      <point x="358" y="386" type="curve" smooth="yes"/>
      <point x="511" y="526" type="line" smooth="yes"/>
      <point x="618" y="623"/>
      <point x="664" y="666"/>
      <point x="742" y="669" type="curve"/>
      <point x="746" y="680"/>
      <point x="748" y="690"/>
      <point x="748" y="701" type="curve"/>
      <point x="714" y="701"/>
      <point x="681" y="699"/>
      <point x="638" y="699" type="curve" smooth="yes"/>
      <point x="605" y="699"/>
      <point x="532" y="700"/>
      <point x="499" y="701" type="curve"/>
      <point x="495" y="690"/>
      <point x="494" y="679"/>
      <point x="493" y="669" type="curve"/>
      <point x="548" y="665"/>
      <point x="556" y="657"/>
      <point x="556" y="644" type="curve" smooth="yes"/>
      <point x="556" y="633"/>
      <point x="534" y="606"/>
      <point x="489" y="564" type="curve" smooth="yes"/>
      <point x="198" y="292" type="line"/>
    </contour>
    <contour>
      <point x="-12" y="-1" type="curve"/>
      <point x="25" y="-1"/>
      <point x="90" y="1"/>
      <point x="139" y="1" type="curve" smooth="yes"/>
      <point x="185" y="1"/>
      <point x="240" y="-1"/>
      <point x="279" y="-1" type="curve"/>
      <point x="282" y="8"/>
      <point x="284" y="21"/>
      <point x="285" y="31" type="curve"/>
      <point x="216" y="36"/>
      <point x="201" y="38"/>
      <point x="201" y="67" type="curve" smooth="yes"/>
      <point x="201" y="80"/>
      <point x="206" y="96"/>
      <point x="210" y="119" type="curve" smooth="yes"/>
      <point x="302" y="593" type="line" smooth="yes"/>
      <point x="315" y="661"/>
      <point x="318" y="662"/>
      <point x="404" y="669" type="curve"/>
      <point x="408" y="679"/>
      <point x="410" y="691"/>
      <point x="410" y="701" type="curve"/>
      <point x="372" y="701"/>
      <point x="313" y="699"/>
      <point x="268" y="699" type="curve" smooth="yes"/>
      <point x="219" y="699"/>
      <point x="154" y="701"/>
      <point x="116" y="701" type="curve"/>
      <point x="113" y="690"/>
      <point x="111" y="679"/>
      <point x="110" y="669" type="curve"/>
      <point x="179" y="664"/>
      <point x="197" y="663"/>
      <point x="197" y="633" type="curve" smooth="yes"/>
      <point x="197" y="621"/>
      <point x="194" y="605"/>
      <point x="189" y="581" type="curve" smooth="yes"/>
      <point x="97" y="107" type="line" smooth="yes"/>
      <point x="84" y="39"/>
      <point x="79" y="39"/>
      <point x="-7" y="31" type="curve"/>
      <point x="-11" y="21"/>
      <point x="-12" y="8"/>
    </contour>
  </outline>
  <guideline angle="0" x="0" y="31"/>
</glyph>
<glyph name="P" format="2">
  <advance width="590"/>
  <unicode hex="0050"/>
  <outline>
    <contour>
      <point x="243" y="328" type="line"/>
      <point x="283" y="315"/>
      <point x="319" y="312"/>
      <point x="348" y="312" type="curve" smooth="yes"/>
      <point x="523" y="312"/>
      <point x="605" y="418"/>
      <point x="605" y="532" type="curve" smooth="yes"/>
      <point x="605" y="646"/>
      <point x="522" y="700"/>
      <point x="373" y="700" type="curve" smooth="yes"/>
      <point x="353" y="700"/>
      <point x="288" y="699"/>
      <point x="267" y="699" type="curve" smooth="yes"/>
      <point x="237" y="699"/>
      <point x="155" y="701"/>
      <point x="116" y="701" type="curve"/>
      <point x="113" y="689"/>
      <point x="111" y="679"/>
      <point x="110" y="669" type="curve"/>
      <point x="179" y="664"/>
      <point x="197" y="663"/>
      <point x="197" y="634" type="curve" smooth="yes"/>
      <point x="197" y="622"/>
      <point x="194" y="606"/>
      <point x="189" y="581" type="curve" smooth="yes"/>
      <point x="97" y="107" type="line" smooth="yes"/>
      <point x="84" y="42"/>
      <point x="81" y="39"/>
      <point x="-7" y="31" type="curve"/>
      <point x="-11" y="21"/>
      <point x="-12" y="8"/>
      <point x="-12" y="-1" type="curve"/>
      <point x="27" y="-1"/>
      <point x="99" y="1"/>
      <point x="141" y="1" type="curve" smooth="yes"/>
      <point x="171" y="1"/>
      <point x="246" y="0"/>
      <point x="294" y="0" type="curve"/>
      <point x="298" y="9"/>
      <point x="300" y="21"/>
      <point x="300" y="31" type="curve"/>
      <point x="217" y="36"/>
      <point x="201" y="37"/>
      <point x="201" y="65" type="curve" smooth="yes"/>
      <point x="201" y="79"/>
      <point x="205" y="99"/>
      <point x="210" y="123" type="curve" smooth="yes"/>
      <point x="319" y="680" type="line"/>
      <point x="288" y="657" type="line"/>
      <point x="315" y="660"/>
      <point x="325" y="662"/>
      <point x="345" y="662" type="curve" smooth="yes"/>
      <point x="451" y="662"/>
      <point x="489" y="602"/>
      <point x="489" y="525" type="curve" smooth="yes"/>
      <point x="489" y="421"/>
      <point x="421" y="352"/>
      <point x="326" y="352" type="curve" smooth="yes"/>
      <point x="307" y="352"/>
      <point x="272" y="355"/>
      <point x="248" y="367" type="curve"/>
    </contour>
  </outline>
  <guideline angle="76.0015" x="66" y="0"/>
  <guideline angle="79.01" x="505" y="0"/>
</glyph>
<glyph name="bracketleft" format="2">
  <advance width="409"/>
  <unicode hex="005B"/>
  <outline>
    <contour>
      <point x="349" y="-183" type="line"/>
      <point x="349" y="-140" type="line"/>
      <point x="192" y="-140" type="line"/>
      <point x="192" y="710" type="line"/>
      <point x="349" y="710" type="line"/>
      <point x="349" y="753" type="line"/>
      <point x="120" y="753" type="line"/>
      <point x="120" y="-183" type="line"/>
    </contour>
  </outline>
</glyph>
<glyph name="asciicircum" format="2">
  <advance width="584"/>
  <unicode hex="005E"/>
  <outline>
    <contour>
      <point x="99" y="348" type="line"/>
      <point x="112" y="341"/>
      <point x="129" y="333"/>
      <point x="143" y="327" type="curve"/>
      <point x="322" y="653" type="line"/>
      <point x="310" y="653" type="line"/>
      <point x="489" y="327" type="line"/>
      <point x="503" y="333"/>
      <point x="519" y="341"/>
      <point x="533" y="348" type="curve"/>
      <point x="335" y="710" type="line"/>
      <point x="324" y="711"/>
      <point x="308" y="712"/>
      <point x="297" y="711" type="curve"/>
    </contour>
  </outline>
  <guideline angle="61.3302" x="-36" y="0"/>
</glyph>
<glyph name="l" format="2">
  <advance width="292"/>
  <unicode hex="006C"/>
  <outline>
    <contour>
      <point x="259" y="113" type="curve"/>
      <point x="231" y="78"/>
      <point x="192" y="51"/>
      <point x="169" y="51" type="curve" smooth="yes"/>
      <point x="155" y="51"/>
      <point x="151" y="60"/>
      <point x="151" y="72" type="curve" smooth="yes"/>
      <point x="151" y="85"/>
      <point x="155" y="103"/>
      <point x="157" y="112" type="curve" smooth="yes"/>
      <point x="250" y="565" type="line" smooth="yes"/>
      <point x="265" y="638"/>
      <point x="278" y="695"/>
      <point x="292" y="745" type="curve"/>
      <point x="279" y="752" type="line"/>
      <point x="229" y="732"/>
      <point x="157" y="723"/>
      <point x="85" y="718" type="curve"/>
      <point x="83" y="709"/>
      <point x="84" y="700"/>
      <point x="86" y="691" type="curve"/>
      <point x="150" y="690"/>
      <point x="169" y="687"/>
      <point x="169" y="661" type="curve" smooth="yes"/>
      <point x="169" y="652"/>
      <point x="166" y="636"/>
      <point x="162" y="617" type="curve" smooth="yes"/>
      <point x="57" y="106" type="line" smooth="yes"/>
      <point x="53" y="88"/>
      <point x="50" y="71"/>
      <point x="50" y="56" type="curve" smooth="yes"/>
      <point x="50" y="15"/>
      <point x="72" y="-12"/>
      <point x="121" y="-12" type="curve" smooth="yes"/>
      <point x="185" y="-12"/>
      <point x="237" y="33"/>
      <point x="282" y="93" type="curve"/>
      <point x="275" y="101"/>
      <point x="268" y="107"/>
    </contour>
  </outline>
  <guideline angle="79.01" x="35" y="0"/>
</glyph>
<glyph name="p" format="2">
  <advance width="561"/>
  <unicode hex="0070"/>
  <outline>
    <contour>
      <point x="205" y="248" type="line"/>
      <point x="220" y="324"/>
      <point x="300" y="417"/>
      <point x="362" y="417" type="curve" smooth="yes"/>
      <point x="399" y="417"/>
      <point x="419" y="384"/>
      <point x="419" y="314" type="curve" smooth="yes"/>
      <point x="419" y="208"/>
      <point x="372" y="32"/>
      <point x="262" y="32" type="curve" smooth="yes"/>
      <point x="226" y="32"/>
      <point x="189" y="52"/>
      <point x="155" y="83" type="curve"/>
      <point x="138" y="9" type="line"/>
      <point x="176" y="-3"/>
      <point x="214" y="-11"/>
      <point x="245" y="-11" type="curve" smooth="yes"/>
      <point x="385" y="-11"/>
      <point x="527" y="154"/>
      <point x="527" y="321" type="curve" smooth="yes"/>
      <point x="527" y="416"/>
      <point x="482" y="480"/>
      <point x="407" y="480" type="curve" smooth="yes"/>
      <point x="340" y="480"/>
      <point x="278" y="431"/>
      <point x="232" y="365" type="curve"/>
      <point x="219" y="365" type="line"/>
    </contour>
    <contour>
      <point x="205" y="248" type="line" smooth="yes"/>
      <point x="232" y="379"/>
      <point x="236" y="402"/>
      <point x="236" y="420" type="curve" smooth="yes"/>
      <point x="236" y="452"/>
      <point x="220" y="478"/>
      <point x="175" y="478" type="curve" smooth="yes"/>
      <point x="126" y="478"/>
      <point x="66" y="447"/>
      <point x="13" y="384" type="curve"/>
      <point x="20" y="376"/>
      <point x="27" y="369"/>
      <point x="36" y="363" type="curve"/>
      <point x="65" y="394"/>
      <point x="98" y="417"/>
      <point x="117" y="417" type="curve" smooth="yes"/>
      <point x="128" y="417"/>
      <point x="135" y="410"/>
      <point x="135" y="393" type="curve" smooth="yes"/>
      <point x="135" y="385"/>
      <point x="133" y="372"/>
      <point x="127" y="345" type="curve" smooth="yes"/>
      <point x="26" y="-142" type="line" smooth="yes"/>
      <point x="13" y="-206"/>
      <point x="4" y="-213"/>
      <point x="-57" y="-220" type="curve"/>
      <point x="-59" y="-228"/>
      <point x="-58" y="-240"/>
      <point x="-57" y="-247" type="curve"/>
      <point x="28" y="-241"/>
      <point x="112" y="-242"/>
      <point x="203" y="-241" type="curve"/>
      <point x="204" y="-234"/>
      <point x="205" y="-222"/>
      <point x="203" y="-211" type="curve"/>
      <point x="136" y="-210"/>
      <point x="118" y="-209"/>
      <point x="118" y="-186" type="curve" smooth="yes"/>
      <point x="118" y="-178"/>
      <point x="119" y="-164"/>
      <point x="125" y="-135" type="curve" smooth="yes"/>
    </contour>
  </outline>
  <guideline angle="79.0044" x="58" y="0"/>
</glyph>
<glyph name="r" format="2">
  <advance width="416"/>
  <unicode hex="0072"/>
  <outline>
    <contour>
      <point x="173" y="219" type="line"/>
      <point x="209" y="337" type="line" smooth="yes"/>
      <point x="225" y="391"/>
      <point x="229" y="409"/>
      <point x="229" y="426" type="curve" smooth="yes"/>
      <point x="229" y="454"/>
      <point x="218" y="478"/>
      <point x="174" y="478" type="curve" smooth="yes"/>
      <point x="124" y="478"/>
      <point x="64" y="447"/>
      <point x="11" y="384" type="curve"/>
      <point x="18" y="376"/>
      <point x="25" y="369"/>
      <point x="34" y="363" type="curve"/>
      <point x="63" y="394"/>
      <point x="96" y="417"/>
      <point x="115" y="417" type="curve" smooth="yes"/>
      <point x="126" y="417"/>
      <point x="133" y="410"/>
      <point x="133" y="393" type="curve" smooth="yes"/>
      <point x="133" y="385"/>
      <point x="131" y="376"/>
      <point x="126" y="355" type="curve" smooth="yes"/>
      <point x="44" y="0" type="line"/>
      <point x="144" y="0" type="line"/>
    </contour>
    <contour>
      <point x="144" y="0" type="line"/>
      <point x="193" y="227"/>
      <point x="276" y="366"/>
      <point x="339" y="406" type="curve"/>
      <point x="355" y="381"/>
      <point x="381" y="370"/>
      <point x="403" y="370" type="curve" smooth="yes"/>
      <point x="432" y="370"/>
      <point x="457" y="390"/>
      <point x="457" y="423" type="curve" smooth="yes"/>
      <point x="457" y="451"/>
      <point x="439" y="480"/>
      <point x="393" y="480" type="curve" smooth="yes"/>
      <point x="316" y="480"/>
      <point x="252" y="399"/>
      <point x="183" y="233" type="curve"/>
      <point x="142" y="238" type="line"/>
    </contour>
  </outline>
  <guideline angle="79.0044" x="372" y="0"/>
</glyph>
<glyph name="bar" format="2">
  <advance width="304"/>
  <unicode hex="007C"/>
  <outline>
    <contour>
      <point x="188" y="-262" type="line"/>
      <point x="188" y="790" type="line"/>
      <point x="136" y="790" type="line"/>
      <point x="136" y="-262" type="line"/>
    </contour>
  </outline>
</glyph>
<glyph name="sterling" format="2">
  <advance width="546"/>
  <unicode hex="00A3"/>
  <outline>
    <contour>
      <point x="128" y="83" type="line"/>
      <point x="127" y="92" type="line"/>
      <point x="99" y="69" type="line"/>
      <point x="214" y="131"/>
      <point x="236" y="207"/>
      <point x="236" y="317" type="curve" smooth="yes"/>
      <point x="236" y="350"/>
      <point x="234" y="392"/>
      <point x="234" y="416" type="curve" smooth="yes"/>
      <point x="234" y="550"/>
      <point x="296" y="592"/>
      <point x="373" y="592" type="curve" smooth="yes"/>
      <point x="404" y="592"/>
      <point x="430" y="585"/>
      <point x="433" y="578" type="curve"/>
      <point x="434" y="590" type="line"/>
      <point x="417" y="590" type="line"/>
      <point x="418" y="520"/>
      <point x="452" y="487"/>
      <point x="488" y="487" type="curve" smooth="yes"/>
      <point x="519" y="487"/>
      <point x="536" y="511"/>
      <point x="536" y="535" type="curve" smooth="yes"/>
      <point x="536" y="568"/>
      <point x="505" y="630"/>
      <point x="379" y="630" type="curve" smooth="yes"/>
      <point x="206" y="630"/>
      <point x="138" y="512"/>
      <point x="138" y="415" type="curve" smooth="yes"/>
      <point x="138" y="350"/>
      <point x="141" y="316"/>
      <point x="141" y="275" type="curve" smooth="yes"/>
      <point x="141" y="156"/>
      <point x="115" y="90"/>
      <point x="-18" y="27" type="curve"/>
      <point x="-19" y="21"/>
      <point x="-20" y="14"/>
      <point x="-20" y="9" type="curve" smooth="yes"/>
      <point x="-20" y="4"/>
      <point x="-19" y="3"/>
      <point x="-19" y="0" type="curve"/>
      <point x="26" y="0"/>
      <point x="63" y="1"/>
      <point x="152" y="1" type="curve" smooth="yes"/>
      <point x="241" y="1"/>
      <point x="337" y="0"/>
      <point x="450" y="-1" type="curve"/>
      <point x="463" y="43"/>
      <point x="476" y="91"/>
      <point x="505" y="171" type="curve"/>
      <point x="493" y="173"/>
      <point x="482" y="173"/>
      <point x="471" y="173" type="curve"/>
      <point x="426" y="87"/>
      <point x="403" y="84"/>
      <point x="333" y="84" type="curve" smooth="yes"/>
    </contour>
    <contour>
      <point x="417" y="258" type="line"/>
      <point x="422" y="275"/>
      <point x="424" y="288"/>
      <point x="424" y="302" type="curve"/>
      <point x="67" y="302" type="line"/>
      <point x="62" y="288"/>
      <point x="60" y="275"/>
      <point x="60" y="258" type="curve"/>
    </contour>
  </outline>
  <guideline angle="0" x="0" y="630"/>
</glyph>
<glyph name="ae" format="2">
  <advance width="722"/>
  <unicode hex="00E6"/>
  <outline>
    <contour>
      <point x="319" y="187" type="line"/>
      <point x="276" y="93"/>
      <point x="224" y="52"/>
      <point x="186" y="52" type="curve" smooth="yes"/>
      <point x="157" y="52"/>
      <point x="132" y="75"/>
      <point x="132" y="155" type="curve" smooth="yes"/>
      <point x="132" y="273"/>
      <point x="187" y="435"/>
      <point x="289" y="435" type="curve" smooth="yes"/>
      <point x="330" y="435"/>
      <point x="371" y="408"/>
      <point x="406" y="365" type="curve"/>
      <point x="462" y="418" type="line"/>
      <point x="407" y="466"/>
      <point x="353" y="480"/>
      <point x="313" y="480" type="curve" smooth="yes"/>
      <point x="181" y="480"/>
      <point x="25" y="328"/>
      <point x="25" y="147" type="curve" smooth="yes"/>
      <point x="25" y="36"/>
      <point x="83" y="-11"/>
      <point x="146" y="-11" type="curve" smooth="yes"/>
      <point x="205" y="-11"/>
      <point x="265" y="29"/>
      <point x="315" y="115" type="curve"/>
      <point x="327" y="115" type="line"/>
    </contour>
    <contour>
      <point x="409" y="219" type="line"/>
      <point x="557" y="233"/>
      <point x="713" y="291"/>
      <point x="713" y="398" type="curve" smooth="yes"/>
      <point x="713" y="448"/>
      <point x="679" y="480"/>
      <point x="605" y="480" type="curve" smooth="yes"/>
      <point x="435" y="480"/>
      <point x="313" y="312"/>
      <point x="313" y="163" type="curve" smooth="yes"/>
      <point x="313" y="56"/>
      <point x="376" y="-12"/>
      <point x="480" y="-12" type="curve" smooth="yes"/>
      <point x="569" y="-12"/>
      <point x="633" y="39"/>
      <point x="678" y="117" type="curve"/>
      <point x="673" y="124"/>
      <point x="664" y="131"/>
      <point x="655" y="136" type="curve"/>
      <point x="617" y="87"/>
      <point x="566" y="53"/>
      <point x="509" y="53" type="curve" smooth="yes"/>
      <point x="446" y="53"/>
      <point x="418" y="95"/>
      <point x="418" y="162" type="curve" smooth="yes"/>
      <point x="418" y="275"/>
      <point x="494" y="438"/>
      <point x="577" y="438" type="curve" smooth="yes"/>
      <point x="605" y="438"/>
      <point x="618" y="418"/>
      <point x="618" y="389" type="curve" smooth="yes"/>
      <point x="618" y="305"/>
      <point x="511" y="263"/>
      <point x="412" y="253" type="curve"/>
    </contour>
  </outline>
</glyph>
<glyph name="Eng" format="2">
  <advance width="763"/>
  <unicode hex="014A"/>
  <outline>
    <contour>
      <point x="427" y="-196" type="curve"/>
      <point x="474" y="-226" type="line"/>
      <point x="460" y="-158"/>
      <point x="419" y="-124"/>
      <point x="378" y="-124" type="curve" smooth="yes"/>
      <point x="340" y="-124"/>
      <point x="317" y="-152"/>
      <point x="317" y="-181" type="curve" smooth="yes"/>
      <point x="317" y="-216"/>
      <point x="350" y="-242"/>
      <point x="416" y="-242" type="curve" smooth="yes"/>
      <point x="470" y="-242"/>
      <point x="537" y="-225"/>
      <point x="587" y="-174" type="curve" smooth="yes"/>
      <point x="636" y="-124"/>
      <point x="664" y="-45"/>
      <point x="682" y="49" type="curve" smooth="yes"/>
      <point x="788" y="589" type="line" smooth="yes"/>
      <point x="802" y="661"/>
      <point x="808" y="662"/>
      <point x="899" y="670" type="curve"/>
      <point x="903" y="681"/>
      <point x="904" y="690"/>
      <point x="905" y="701" type="curve"/>
      <point x="864" y="701"/>
      <point x="812" y="699"/>
      <point x="781" y="699" type="curve" smooth="yes"/>
      <point x="749" y="699"/>
      <point x="692" y="701"/>
      <point x="662" y="701" type="curve"/>
      <point x="659" y="689"/>
      <point x="656" y="680"/>
      <point x="655" y="669" type="curve"/>
      <point x="723" y="665"/>
      <point x="741" y="663"/>
      <point x="741" y="630" type="curve" smooth="yes"/>
      <point x="741" y="616"/>
      <point x="738" y="601"/>
      <point x="733" y="576" type="curve" smooth="yes"/>
      <point x="641" y="103" type="line"/>
      <point x="668" y="132" type="line"/>
      <point x="355" y="700" type="line"/>
      <point x="340" y="699"/>
      <point x="310" y="699"/>
      <point x="299" y="699" type="curve" smooth="yes"/>
      <point x="270" y="699"/>
      <point x="218" y="701"/>
      <point x="178" y="701" type="curve"/>
      <point x="175" y="689"/>
      <point x="173" y="678"/>
      <point x="172" y="667" type="curve"/>
      <point x="240" y="663"/>
      <point x="259" y="661"/>
      <point x="259" y="630" type="curve" smooth="yes"/>
      <point x="259" y="617"/>
      <point x="256" y="601"/>
      <point x="251" y="576" type="curve" smooth="yes"/>
      <point x="161" y="111" type="line" smooth="yes"/>
      <point x="147" y="40"/>
      <point x="140" y="39"/>
      <point x="52" y="31" type="curve"/>
      <point x="48" y="21"/>
      <point x="47" y="9"/>
      <point x="46" y="0" type="curve"/>
      <point x="84" y="0"/>
      <point x="141" y="1"/>
      <point x="172" y="1" type="curve" smooth="yes"/>
      <point x="203" y="1"/>
      <point x="257" y="0"/>
      <point x="289" y="0" type="curve"/>
      <point x="291" y="9"/>
      <point x="293" y="22"/>
      <point x="293" y="32" type="curve"/>
      <point x="221" y="37"/>
      <point x="209" y="40"/>
      <point x="209" y="70" type="curve" smooth="yes"/>
      <point x="209" y="84"/>
      <point x="212" y="107"/>
      <point x="215" y="123" type="curve" smooth="yes"/>
      <point x="312" y="622" type="line"/>
      <point x="285" y="601" type="line"/>
      <point x="618" y="-2" type="line"/>
      <point x="592" y="-117"/>
      <point x="531" y="-197"/>
    </contour>
  </outline>
</glyph>
<glyph name="dotaccentcomb" format="2">
  <unicode hex="0307"/>
  <outline>
    <contour>
      <point x="-210" y="594" type="curve" smooth="yes"/>
      <point x="-169" y="594"/>
      <point x="-139" y="628"/>
      <point x="-139" y="668" type="curve" smooth="yes"/>
      <point x="-139" y="703"/>
      <point x="-162" y="729"/>
      <point x="-198" y="729" type="curve" smooth="yes"/>
      <point x="-238" y="729"/>
      <point x="-271" y="696"/>
      <point x="-271" y="656" type="curve" smooth="yes"/>
      <point x="-271" y="621"/>
      <point x="-246" y="594"/>
    </contour>
  </outline>
</glyph>
<glyph name="ZWJ" format="2">
  <unicode hex="200D"/>
  <outline>
    <contour>
      <point x="77" y="717" type="line"/>
      <point x="-113" y="-262" type="line"/>
      <point x="-85" y="-262" type="line"/>
      <point x="105" y="717" type="line"/>
    </contour>
    <contour>
      <point x="-36" y="703" type="line"/>
      <point x="-20" y="682" type="line"/>
      <point x="104" y="780" type="line"/>
      <point x="188" y="682" type="line"/>
      <point x="209" y="701" type="line"/>
      <point x="139" y="782" type="line"/>
      <point x="245" y="867" type="line"/>
      <point x="229" y="888" type="line"/>
      <point x="105" y="790" type="line"/>
      <point x="21" y="888" type="line"/>
      <point x="0" y="869" type="line"/>
      <point x="70" y="788" type="line"/>
    </contour>
  </outline>
</glyph>
<glyph name="quotereversed" format="2">
  <advance width="220"/>
  <unicode hex="201B"/>
  <outline>
    <contour>
      <point x="234" y="445" type="line"/>
      <point x="183" y="465"/>
      <point x="150" y="507"/>
      <point x="150" y="564" type="curve" smooth="yes"/>
      <point x="150" y="574"/>
      <point x="151" y="584"/>
      <point x="160" y="605" type="curve"/>
      <point x="150" y="601" type="line"/>
      <point x="162" y="591"/>
      <point x="178" y="586"/>
      <point x="194" y="586" type="curve" smooth="yes"/>
      <point x="234" y="586"/>
      <point x="264" y="615"/>
      <point x="264" y="653" type="curve" smooth="yes"/>
      <point x="264" y="691"/>
      <point x="234" y="711"/>
      <point x="199" y="711" type="curve" smooth="yes"/>
      <point x="134" y="711"/>
      <point x="95" y="641"/>
      <point x="95" y="574" type="curve" smooth="yes"/>
      <point x="95" y="501"/>
      <point x="142" y="441"/>
      <point x="218" y="416" type="curve"/>
    </contour>
  </outline>
  <guideline angle="0" x="0" y="587"/>
  <guideline angle="0" x="0" y="416"/>
</glyph>
<glyph name="bullet" format="2">
  <advance width="523"/>
  <unicode hex="2022"/>
  <outline>
    <contour>
      <point x="124" y="369" type="curve" smooth="yes"/>
      <point x="124" y="279"/>
      <point x="195" y="208"/>
      <point x="285" y="208" type="curve" smooth="yes"/>
      <point x="375" y="208"/>
      <point x="447" y="279"/>
      <point x="447" y="369" type="curve" smooth="yes"/>
      <point x="447" y="459"/>
      <point x="375" y="531"/>
      <point x="285" y="531" type="curve" smooth="yes"/>
      <point x="195" y="531"/>
      <point x="124" y="459"/>
    </contour>
  </outline>
  <guideline angle="79.0044" x="378" y="0"/>
  <guideline angle="79.0044" x="48" y="0"/>
</glyph>
<glyph name="G.sc" format="2">
  <advance width="628"/>
  <outline>
    <contour>
      <point x="293" y="-14" type="curve" smooth="yes"/>
      <point x="349" y="-14"/>
      <point x="404" y="-3"/>
      <point x="493" y="24" type="curve"/>
      <point x="420" y="53" type="line"/>
      <point x="379" y="35"/>
      <point x="343" y="26"/>
      <point x="302" y="26" type="curve" smooth="yes"/>
      <point x="197" y="26"/>
      <point x="153" y="93"/>
      <point x="153" y="211" type="curve" smooth="yes"/>
      <point x="153" y="355"/>
      <point x="211" y="520"/>
      <point x="383" y="520" type="curve" smooth="yes"/>
      <point x="469" y="520"/>
      <point x="515" y="479"/>
      <point x="520" y="358" type="curve"/>
      <point x="530" y="357"/>
      <point x="542" y="357"/>
      <point x="553" y="360" type="curve"/>
      <point x="560" y="424"/>
      <point x="566" y="479"/>
      <point x="574" y="534" type="curve"/>
      <point x="567" y="533"/>
      <point x="561" y="532"/>
      <point x="553" y="532" type="curve" smooth="yes"/>
      <point x="508" y="532"/>
      <point x="473" y="560"/>
      <point x="380" y="560" type="curve" smooth="yes"/>
      <point x="152" y="560"/>
      <point x="43" y="391"/>
      <point x="43" y="227" type="curve" smooth="yes"/>
      <point x="43" y="90"/>
      <point x="129" y="-14"/>
    </contour>
    <contour>
      <point x="493" y="24" type="line"/>
      <point x="493" y="36"/>
      <point x="496" y="65"/>
      <point x="504" y="107" type="curve" smooth="yes"/>
      <point x="513" y="156" type="line" smooth="yes"/>
      <point x="521" y="198"/>
      <point x="521" y="200"/>
      <point x="596" y="208" type="curve"/>
      <point x="600" y="218"/>
      <point x="602" y="228"/>
      <point x="602" y="239" type="curve"/>
      <point x="569" y="239"/>
      <point x="511" y="237"/>
      <point x="481" y="237" type="curve" smooth="yes"/>
      <point x="446" y="237"/>
      <point x="371" y="239"/>
      <point x="333" y="239" type="curve"/>
      <point x="329" y="231"/>
      <point x="327" y="218"/>
      <point x="327" y="208" type="curve"/>
      <point x="397" y="202"/>
      <point x="414" y="200"/>
      <point x="414" y="174" type="curve" smooth="yes"/>
      <point x="414" y="167"/>
      <point x="412" y="155"/>
      <point x="410" y="143" type="curve" smooth="yes"/>
      <point x="390" y="27" type="line"/>
    </contour>
  </outline>
</glyph>
<glyph name="G_macronbelowcomb_H_macronbelowcomb" format="2">
  <advance width="1582"/>
  <outline>
    <component base="G"/>
    <component base="H" xOffset="770"/>
    <contour>
      <point x="182" y="-103" type="line"/>
      <point x="177" y="-119"/>
      <point x="173" y="-137"/>
      <point x="172" y="-153" type="curve"/>
      <point x="1270" y="-153" type="line"/>
      <point x="1275" y="-137"/>
      <point x="1279" y="-119"/>
      <point x="1280" y="-103" type="curve"/>
    </contour>
  </outline>
  <guideline angle="79.0044" x="1298" y="0"/>
</glyph>
<glyph name="Klinebelow_H_macronbelowcomb.sc" format="2">
  <advance width="1376"/>
  <outline>
    <component base="K"/>
    <component base="H.sc" xOffset="694"/>
    <contour>
      <point x="165" y="-103" type="line"/>
      <point x="160" y="-119"/>
      <point x="156" y="-137"/>
      <point x="155" y="-153" type="curve"/>
      <point x="1091" y="-153" type="line"/>
      <point x="1096" y="-137"/>
      <point x="1100" y="-119"/>
      <point x="1101" y="-103" type="curve"/>
    </contour>
  </outline>
  <guideline angle="79.0044" x="187" y="0"/>
  <guideline angle="79.0044" x="1222" y="0"/>
</glyph>
<glyph name="Klinebelow_hlinebelow" format="2">
  <advance width="1268"/>
  <outline>
    <component base="K"/>
    <component base="h" xOffset="692"/>
    <contour>
      <point x="120" y="-103" type="line"/>
      <point x="115" y="-119"/>
      <point x="111" y="-137"/>
      <point x="110" y="-153" type="curve"/>
      <point x="1062" y="-153" type="line"/>
      <point x="1067" y="-137"/>
      <point x="1071" y="-119"/>
      <point x="1072" y="-103" type="curve"/>
    </contour>
  </outline>
  <guideline angle="79.0044" x="1099" y="0"/>
</glyph>
<glyph name="Y.sc" format="2">
  <advance width="512"/>
  <outline>
    <contour>
      <point x="283" y="199" type="line"/>
      <point x="435" y="414" type="line" smooth="yes"/>
      <point x="502" y="508"/>
      <point x="514" y="511"/>
      <point x="584" y="519" type="curve"/>
      <point x="588" y="529"/>
      <point x="590" y="539"/>
      <point x="590" y="550" type="curve"/>
      <point x="553" y="550"/>
      <point x="521" y="548"/>
      <point x="482" y="548" type="curve" smooth="yes"/>
      <point x="453" y="548"/>
      <point x="395" y="550"/>
      <point x="364" y="550" type="curve"/>
      <point x="359" y="539"/>
      <point x="358" y="531"/>
      <point x="358" y="519" type="curve"/>
      <point x="409" y="512"/>
      <point x="428" y="509"/>
      <point x="428" y="492" type="curve" smooth="yes"/>
      <point x="428" y="481"/>
      <point x="420" y="469"/>
      <point x="404" y="445" type="curve" smooth="yes"/>
      <point x="280" y="262" type="line"/>
      <point x="289" y="262" type="line"/>
      <point x="222" y="445" type="line" smooth="yes"/>
      <point x="214" y="467"/>
      <point x="211" y="481"/>
      <point x="211" y="491" type="curve" smooth="yes"/>
      <point x="211" y="509"/>
      <point x="233" y="516"/>
      <point x="281" y="519" type="curve"/>
      <point x="285" y="529"/>
      <point x="287" y="539"/>
      <point x="287" y="550" type="curve"/>
      <point x="249" y="550"/>
      <point x="196" y="548"/>
      <point x="162" y="548" type="curve" smooth="yes"/>
      <point x="121" y="548"/>
      <point x="70" y="550"/>
      <point x="23" y="550" type="curve"/>
      <point x="19" y="542"/>
      <point x="17" y="529"/>
      <point x="17" y="519" type="curve"/>
      <point x="91" y="511"/>
      <point x="93" y="506"/>
      <point x="125" y="419" type="curve" smooth="yes"/>
      <point x="207" y="199" type="line"/>
    </contour>
    <contour>
      <point x="76" y="-1" type="curve"/>
      <point x="113" y="-1"/>
      <point x="173" y="1"/>
      <point x="208" y="1" type="curve" smooth="yes"/>
      <point x="242" y="1"/>
      <point x="307" y="-1"/>
      <point x="343" y="-1" type="curve"/>
      <point x="347" y="9"/>
      <point x="349" y="19"/>
      <point x="349" y="30" type="curve"/>
      <point x="289" y="36"/>
      <point x="272" y="38"/>
      <point x="272" y="61" type="curve" smooth="yes"/>
      <point x="272" y="70"/>
      <point x="274" y="80"/>
      <point x="277" y="95" type="curve" smooth="yes"/>
      <point x="305" y="239" type="line"/>
      <point x="203" y="239" type="line"/>
      <point x="173" y="83" type="line" smooth="yes"/>
      <point x="165" y="39"/>
      <point x="163" y="38"/>
      <point x="82" y="30" type="curve"/>
      <point x="78" y="22"/>
      <point x="76" y="9"/>
    </contour>
  </outline>
</glyph>
<glyph name="commaaccentturnedabovecomb.cap" format="2">
  <outline>
    <contour>
      <point x="-182" y="736" type="curve" smooth="yes"/>
      <point x="-147" y="736"/>
      <point x="-118" y="757"/>
      <point x="-118" y="793" type="curve" smooth="yes"/>
      <point x="-118" y="819"/>
      <point x="-133" y="843"/>
      <point x="-169" y="843" type="curve" smooth="yes"/>
      <point x="-184" y="843"/>
      <point x="-194" y="839"/>
      <point x="-206" y="826" type="curve"/>
      <point x="-196" y="833" type="line"/>
      <point x="-196" y="839" type="line" smooth="yes"/>
      <point x="-196" y="877"/>
      <point x="-159" y="907"/>
      <point x="-93" y="917" type="curve"/>
      <point x="-93" y="923"/>
      <point x="-96" y="941"/>
      <point x="-98" y="947" type="curve"/>
      <point x="-184" y="934"/>
      <point x="-250" y="888"/>
      <point x="-250" y="813" type="curve" smooth="yes"/>
      <point x="-250" y="767"/>
      <point x="-225" y="736"/>
    </contour>
  </outline>
  <guideline angle="78.9989" x="-271" y="0"/>
</glyph>
<glyph name="five.LP" format="2">
  <advance width="536"/>
  <outline>
    <contour>
      <point x="185" y="-12" type="curve" smooth="yes"/>
      <point x="372" y="-12"/>
      <point x="490" y="113"/>
      <point x="490" y="263" type="curve" smooth="yes"/>
      <point x="490" y="391"/>
      <point x="402" y="460"/>
      <point x="273" y="460" type="curve" smooth="yes"/>
      <point x="238" y="460"/>
      <point x="191" y="455"/>
      <point x="163" y="447" type="curve"/>
      <point x="170" y="441" type="line"/>
      <point x="222" y="618" type="line"/>
      <point x="206" y="608" type="line"/>
      <point x="503" y="606" type="line"/>
      <point x="518" y="635"/>
      <point x="531" y="673"/>
      <point x="539" y="703" type="curve"/>
      <point x="204" y="699" type="line"/>
      <point x="101" y="365" type="line"/>
      <point x="108" y="362" type="line"/>
      <point x="151" y="373"/>
      <point x="198" y="377"/>
      <point x="226" y="377" type="curve" smooth="yes"/>
      <point x="316" y="377"/>
      <point x="393" y="337"/>
      <point x="393" y="230" type="curve" smooth="yes"/>
      <point x="393" y="119"/>
      <point x="309" y="24"/>
      <point x="186" y="24" type="curve" smooth="yes"/>
      <point x="169" y="24"/>
      <point x="141" y="26"/>
      <point x="121" y="32" type="curve"/>
      <point x="131" y="17" type="line"/>
      <point x="124" y="95"/>
      <point x="93" y="138"/>
      <point x="50" y="138" type="curve" smooth="yes"/>
      <point x="19" y="138"/>
      <point x="-4" y="116"/>
      <point x="-4" y="84" type="curve" smooth="yes"/>
      <point x="-4" y="23"/>
      <point x="87" y="-12"/>
    </contour>
  </outline>
</glyph>
<glyph name="four.numr" format="2">
  <advance width="364"/>
  <outline>
    <contour>
      <point x="257" y="336" type="curve" smooth="yes"/>
      <point x="268" y="336"/>
      <point x="281" y="336"/>
      <point x="292" y="337" type="curve"/>
      <point x="350" y="637" type="line"/>
      <point x="353" y="649"/>
      <point x="355" y="664"/>
      <point x="363" y="695" type="curve"/>
      <point x="347" y="698"/>
      <point x="328" y="699"/>
      <point x="308" y="699" type="curve"/>
      <point x="219" y="616"/>
      <point x="135" y="546"/>
      <point x="57" y="464" type="curve"/>
      <point x="56" y="452"/>
      <point x="57" y="433"/>
      <point x="59" y="421" type="curve"/>
      <point x="381" y="421" type="line"/>
      <point x="387" y="438"/>
      <point x="391" y="457"/>
      <point x="394" y="479" type="curve"/>
      <point x="93" y="479" type="line"/>
      <point x="95" y="461" type="line"/>
      <point x="156" y="522"/>
      <point x="222" y="579"/>
      <point x="296" y="644" type="curve"/>
      <point x="283" y="663" type="line"/>
      <point x="220" y="337" type="line"/>
      <point x="231" y="336"/>
      <point x="246" y="336"/>
    </contour>
  </outline>
  <guideline angle="78.9989" x="168" y="0"/>
</glyph>
<glyph name="klinebelow_hlinebelow" format="2">
  <advance width="1095"/>
  <outline>
    <component base="k" xOffset="3"/>
    <component base="h" xOffset="519"/>
    <contour>
      <point x="57" y="-103" type="line"/>
      <point x="52" y="-119"/>
      <point x="48" y="-137"/>
      <point x="47" y="-153" type="curve"/>
      <point x="889" y="-153" type="line"/>
      <point x="894" y="-137"/>
      <point x="898" y="-119"/>
      <point x="899" y="-103" type="curve"/>
    </contour>
  </outline>
</glyph>
<glyph name="one.numr" format="2">
  <advance width="270"/>
  <outline>
    <contour>
      <point x="53" y="335" type="curve"/>
      <point x="83" y="335"/>
      <point x="108" y="338"/>
      <point x="164" y="338" type="curve" smooth="yes"/>
      <point x="223" y="338"/>
      <point x="242" y="335"/>
      <point x="267" y="335" type="curve"/>
      <point x="271" y="343"/>
      <point x="273" y="351"/>
      <point x="274" y="360" type="curve"/>
      <point x="223" y="365"/>
      <point x="209" y="366"/>
      <point x="209" y="391" type="curve" smooth="yes"/>
      <point x="209" y="401"/>
      <point x="211" y="413"/>
      <point x="215" y="434" type="curve" smooth="yes"/>
      <point x="245" y="590" type="line" smooth="yes"/>
      <point x="253" y="634"/>
      <point x="266" y="666"/>
      <point x="282" y="682" type="curve"/>
      <point x="282" y="689"/>
      <point x="278" y="694"/>
      <point x="274" y="699" type="curve"/>
      <point x="206" y="673"/>
      <point x="159" y="656"/>
      <point x="84" y="635" type="curve"/>
      <point x="84" y="626"/>
      <point x="85" y="619"/>
      <point x="87" y="610" type="curve"/>
      <point x="120" y="616"/>
      <point x="144" y="619"/>
      <point x="155" y="619" type="curve" smooth="yes"/>
      <point x="168" y="619"/>
      <point x="173" y="615"/>
      <point x="173" y="605" type="curve" smooth="yes"/>
      <point x="173" y="600"/>
      <point x="172" y="592"/>
      <point x="171" y="584" type="curve"/>
      <point x="140" y="426" type="line" smooth="yes"/>
      <point x="129" y="370"/>
      <point x="127" y="367"/>
      <point x="58" y="360" type="curve"/>
      <point x="55" y="351"/>
      <point x="53" y="343"/>
    </contour>
  </outline>
</glyph>
